<svg width="14" height="14" viewBox="0 0 14 14" fill="none" xmlns="http://www.w3.org/2000/svg">
<path d="M12 4C13.1046 4 14 3.10457 14 2C14 0.895429 13.1046 -4.82823e-08 12 0L2 4.37114e-07C0.8954 4.85398e-07 -4.82823e-08 0.89543 0 2C4.82823e-08 3.10457 0.8954 4 2 4L12 4ZM1 2C1 1.44772 1.4477 1 2 1L12 1C12.5523 1 13 1.44772 13 2C13 2.55228 12.5523 3 12 3L2 3C1.4477 3 1 2.55228 1 2ZM6 14C7.10457 14 8 13.1046 8 12C8 10.8954 7.10457 10 6 10H2C0.895399 10 3.88832e-07 10.8954 4.37114e-07 12C4.85396e-07 13.1046 0.8954 14 2 14H6ZM1 12C1 11.4477 1.4477 11 2 11H6C6.55228 11 7 11.4477 7 12C7 12.5523 6.55228 13 6 13H2C1.4477 13 1 12.5523 1 12ZM10 7C10 8.1046 9.10457 9 8 9H2C0.8954 9 2.66839e-07 8.1046 2.18555e-07 7C1.70272e-07 5.8954 0.8954 5 2 5L8 5C9.10457 5 10 5.8954 10 7ZM9 7C9 6.4477 8.55228 6 8 6L2 6C1.4477 6 1 6.4477 1 7C1 7.5523 1.4477 8 2 8H8C8.55228 8 9 7.5523 9 7Z" fill="black"/>
</svg>
