<svg width="25" height="24" viewBox="0 0 25 24" fill="none" xmlns="http://www.w3.org/2000/svg">
<g clip-path="url(#clip0_362_176892)">
<path d="M23.75 3.58354H22.0111V2.64014C22.0111 2.43304 21.8432 2.26514 21.6361 2.26514C17.3199 2.26514 15.9339 2.64061 13.1726 3.38864C12.9579 3.44681 12.734 3.50742 12.5 3.57028C12.266 3.50742 12.0421 3.44681 11.8274 3.38864C9.06612 2.64061 7.68013 2.26514 3.36392 2.26514C3.15683 2.26514 2.98892 2.43304 2.98892 2.64014V3.58354H1.25C1.04291 3.58354 0.875 3.75145 0.875 3.95854V20.144C0.875 20.3511 1.04291 20.519 1.25 20.519H10.4887V20.526C10.4887 21.1925 11.031 21.7348 11.6975 21.7348H13.3202C13.9867 21.7348 14.529 21.1926 14.529 20.526V20.519H23.75C23.9571 20.519 24.125 20.3511 24.125 20.144V3.95854C24.125 3.7514 23.9571 3.58354 23.75 3.58354ZM13.3686 4.11253C16.0659 3.38184 17.3413 3.03632 21.261 3.01607V17.9268C17.6122 17.9577 14.8569 18.4434 12.875 19.4064V11.8262V4.24603C13.0447 4.20028 13.2094 4.1557 13.3686 4.11253ZM3.73892 3.01607C7.65866 3.03632 8.93403 3.38184 11.6314 4.11253C11.7909 4.15575 11.9551 4.20023 12.125 4.24603V19.4061C10.1432 18.4432 7.38767 17.9578 3.73892 17.9269V3.01607ZM23.375 19.769H14.154C13.9469 19.769 13.779 19.9369 13.779 20.144V20.5259C13.779 20.7789 13.5732 20.9848 13.3202 20.9848H11.6975C11.4446 20.9848 11.2387 20.7789 11.2387 20.5259V20.144C11.2387 19.9369 11.0708 19.769 10.8637 19.769H1.625V4.33354H2.98892V18.3003C2.98892 18.5074 3.15683 18.6753 3.36392 18.6753C7.42934 18.6753 10.3564 19.2242 12.3125 20.3536C12.3705 20.3871 12.4353 20.4038 12.5 20.4038C12.5647 20.4038 12.6295 20.3871 12.6875 20.3536C14.6435 19.2242 17.5707 18.6753 21.636 18.6753C21.8431 18.6753 22.011 18.5074 22.011 18.3003V4.33354H23.375V19.769ZM11.453 9.08512L8.11948 7.16057C8.00342 7.09359 7.86055 7.09359 7.74448 7.16057L4.41102 9.08512C4.295 9.15211 4.22352 9.2759 4.22352 9.40987V13.259C4.22352 13.393 4.295 13.5168 4.41102 13.5838L7.74448 15.5083C7.80252 15.5418 7.86725 15.5586 7.93198 15.5586C7.99672 15.5586 8.06145 15.5418 8.11948 15.5083L11.453 13.5838C11.569 13.5168 11.6405 13.393 11.6405 13.259V9.40987C11.6405 9.27595 11.569 9.15215 11.453 9.08512ZM7.93198 10.9015L7.49862 10.6513L10.0821 9.1597L10.5155 9.40992L7.93198 10.9015ZM6.53192 10.0931L9.11539 8.60156L9.33209 8.72667L6.74862 10.2182L6.53192 10.0931ZM6.15692 10.7427L6.37362 10.8678V11.5175L6.15692 11.3924V10.7427ZM7.93198 7.91835L8.36534 8.16857L5.78188 9.66014L5.34847 9.40992L7.93198 7.91835ZM4.97352 10.0594L5.40692 10.3096V11.6089C5.40692 11.7428 5.47841 11.8666 5.59442 11.9336L6.56112 12.4917C6.61916 12.5252 6.68389 12.542 6.74862 12.542C6.81336 12.542 6.87809 12.5252 6.93612 12.4917C7.05214 12.4247 7.12362 12.3009 7.12362 12.167V11.3008L7.55703 11.551V14.5341L4.97356 13.0425L4.97352 10.0594ZM8.30698 14.5341V11.551L10.8905 10.0594V13.0425L8.30698 14.5341ZM16.8482 8.60451C16.8482 8.39742 17.0161 8.22951 17.2232 8.22951H20.0717C20.2788 8.22951 20.4467 8.39742 20.4467 8.60451C20.4467 8.8116 20.2788 8.97951 20.0717 8.97951H17.2232C17.0161 8.97951 16.8482 8.81165 16.8482 8.60451ZM16.8482 7.39228C16.8482 7.18518 17.0161 7.01728 17.2232 7.01728H20.0717C20.2788 7.01728 20.4467 7.18518 20.4467 7.39228C20.4467 7.59937 20.2788 7.76728 20.0717 7.76728H17.2232C17.0161 7.76728 16.8482 7.59937 16.8482 7.39228ZM16.8482 10.7284C16.8482 10.5213 17.0161 10.3534 17.2232 10.3534H20.0717C20.2788 10.3534 20.4467 10.5213 20.4467 10.7284C20.4467 10.9355 20.2788 11.1034 20.0717 11.1034H17.2232C17.0161 11.1034 16.8482 10.9355 16.8482 10.7284ZM16.8482 11.9406C16.8482 11.7335 17.0161 11.5656 17.2232 11.5656H20.0717C20.2788 11.5656 20.4467 11.7335 20.4467 11.9406C20.4467 12.1477 20.2788 12.3156 20.0717 12.3156H17.2232C17.0161 12.3156 16.8482 12.1477 16.8482 11.9406ZM16.8482 15.2767C16.8482 15.0696 17.0161 14.9017 17.2232 14.9017H20.0717C20.2788 14.9017 20.4467 15.0696 20.4467 15.2767C20.4467 15.4838 20.2788 15.6517 20.0717 15.6517H17.2232C17.0161 15.6517 16.8482 15.4838 16.8482 15.2767ZM16.8482 14.0644C16.8482 13.8573 17.0161 13.6894 17.2232 13.6894H20.0717C20.2788 13.6894 20.4467 13.8573 20.4467 14.0644C20.4467 14.2715 20.2788 14.4394 20.0717 14.4394H17.2232C17.0161 14.4394 16.8482 14.2715 16.8482 14.0644ZM14.4017 9.2219H15.424C15.8167 9.2219 16.1363 8.90236 16.1363 8.50954V7.48725C16.1363 7.09448 15.8168 6.77493 15.424 6.77493H14.4017C14.0089 6.77493 13.6893 7.09448 13.6893 7.48725V8.50954C13.6893 8.90231 14.0089 9.2219 14.4017 9.2219ZM14.4393 7.52493H15.3863V8.4719H14.4393V7.52493ZM14.4017 12.5579H15.424C15.8167 12.5579 16.1363 12.2384 16.1363 11.8456V10.8233C16.1363 10.4306 15.8168 10.111 15.424 10.111H14.4017C14.0089 10.111 13.6893 10.4305 13.6893 10.8233V11.8456C13.6893 12.2384 14.0089 12.5579 14.4017 12.5579ZM14.4393 10.861H15.3863V11.8079H14.4393V10.861ZM14.4017 15.894H15.424C15.8167 15.894 16.1363 15.5745 16.1363 15.1817V14.1594C16.1363 13.7667 15.8168 13.4471 15.424 13.4471H14.4017C14.0089 13.4471 13.6893 13.7666 13.6893 14.1594V15.1817C13.6893 15.5745 14.0089 15.894 14.4017 15.894ZM14.4393 14.1971H15.3863V15.144H14.4393V14.1971Z" fill="#757575" stroke="#757575" stroke-width="0.12"/>
</g>
<defs>
<clipPath id="clip0_362_176892">
<rect width="24" height="24" fill="white" transform="translate(0.5)"/>
</clipPath>
</defs>
</svg>
