<svg width="24" height="24" viewBox="0 0 24 24" fill="none" xmlns="http://www.w3.org/2000/svg">
<path d="M22.0001 22.75H2.00012C1.59012 22.75 1.25012 22.41 1.25012 22C1.25012 21.59 1.59012 21.25 2.00012 21.25H22.0001C22.4101 21.25 22.7501 21.59 22.7501 22C22.7501 22.41 22.4101 22.75 22.0001 22.75Z" fill="#757575"/>
<path d="M14.25 22.75H9.75C9.34 22.75 9 22.41 9 22V4C9 2.28 9.95 1.25 11.55 1.25H12.45C14.05 1.25 15 2.28 15 4V22C15 22.41 14.66 22.75 14.25 22.75ZM10.5 21.25H13.5V4C13.5 2.85 12.96 2.75 12.45 2.75H11.55C11.04 2.75 10.5 2.85 10.5 4V21.25Z" fill="#757575"/>
<path d="M7 22.75H3C2.59 22.75 2.25 22.41 2.25 22V10C2.25 8.28 3.13 7.25 4.6 7.25H5.4C6.87 7.25 7.75 8.28 7.75 10V22C7.75 22.41 7.41 22.75 7 22.75ZM3.75 21.25H6.25V10C6.25 8.75 5.7 8.75 5.4 8.75H4.6C4.3 8.75 3.75 8.75 3.75 10V21.25Z" fill="#757575"/>
<path d="M21.0001 22.75H17.0001C16.5901 22.75 16.2501 22.41 16.2501 22V15C16.2501 13.28 17.1301 12.25 18.6001 12.25H19.4001C20.8701 12.25 21.7501 13.28 21.7501 15V22C21.7501 22.41 21.4101 22.75 21.0001 22.75ZM17.7501 21.25H20.2501V15C20.2501 13.75 19.7001 13.75 19.4001 13.75H18.6001C18.3001 13.75 17.7501 13.75 17.7501 15V21.25Z" fill="#757575"/>
</svg>
