<svg width="478" height="280" viewBox="0 0 478 280" fill="none" xmlns="http://www.w3.org/2000/svg">
<g clip-path="url(#clip0_291_14041)">
<g filter="url(#filter0_i_291_14041)">
<path d="M92.7657 -0.0825008C92.8995 -0.0819244 93.0332 -0.081348 93.1711 -0.0807542C99.4822 -0.0407086 104.984 2.27716 109.441 6.83658C113.271 10.8987 115.135 16.4093 115.12 21.9835C115.009 25.7324 114.167 29.2453 112.508 32.596C112.413 32.7911 112.318 32.9861 112.22 33.1871C111.158 35.3172 109.847 37.2617 108.52 39.2288C108.158 39.7689 107.797 40.3093 107.435 40.8498C107.189 41.2178 106.943 41.5857 106.696 41.9535C105.362 43.9458 104.048 45.9514 102.737 47.9593C101.751 49.4688 100.763 50.9751 99.7399 52.459C99.5869 52.6821 99.4339 52.9053 99.2809 53.1284C99.0056 53.5297 98.7271 53.9277 98.446 54.3249C98.3275 54.4972 98.209 54.6695 98.0869 54.8471C97.9324 55.0668 97.9324 55.0668 97.7748 55.291C97.5245 55.8423 97.6111 56.0847 97.7684 56.6637C97.9716 57.0645 97.9716 57.0645 98.2389 57.4471C98.3377 57.5957 98.4365 57.7443 98.5383 57.8974C98.6462 58.0563 98.7541 58.2152 98.8653 58.3789C98.977 58.546 99.0887 58.7132 99.2038 58.8854C99.5674 59.4289 99.9332 59.971 100.299 60.5131C100.551 60.8889 100.802 61.2647 101.054 61.6407C101.546 62.3759 102.038 63.1107 102.531 63.8451C103.263 64.9368 103.988 66.0334 104.707 67.1341C105.482 68.3201 106.259 69.5044 107.042 70.6852C107.477 71.3423 107.911 72 108.345 72.6577C108.559 72.9805 108.773 73.303 108.987 73.6253C110.68 76.1721 112.393 78.7548 113.499 81.6315C113.56 81.7887 113.621 81.9459 113.684 82.1079C115.799 87.8231 115.573 94.2345 113.106 99.7779C110.669 105.029 106.39 108.772 101.127 110.863C100.024 111.249 98.9048 111.548 97.7684 111.811C97.6342 111.845 97.5001 111.878 97.3618 111.913C96.6366 112.034 95.9229 112.039 95.1891 112.046C95.0285 112.047 94.868 112.049 94.7027 112.05C94.3622 112.053 94.0217 112.055 93.6812 112.056C93.3395 112.059 92.9978 112.062 92.6561 112.068C87.3824 112.155 82.5755 110.632 78.5506 107.073C78.3998 106.943 78.249 106.813 78.0936 106.679C74.6434 103.625 72.2735 99.822 69.8082 95.9511C69.3113 95.1717 68.8116 94.3942 68.3117 93.6168C66.8333 91.3179 65.3609 89.0152 63.8883 86.7126C62.7134 84.8757 61.5373 83.0397 60.3589 81.2051C58.9829 79.0629 57.6103 76.9185 56.2385 74.7735C55.0636 72.9366 53.8875 71.1006 52.7091 69.2661C51.5323 67.434 50.3578 65.6005 49.1847 63.7661C48.8743 63.281 48.5637 62.7961 48.253 62.3112C48.1478 62.147 48.0426 61.9827 47.9343 61.8135C47.7379 61.507 47.5416 61.2006 47.3452 60.8942C46.4847 59.5505 45.6329 58.2016 44.7794 56.8532C44.6871 83.4944 44.6871 83.4944 44.5928 110.674C29.8772 110.674 15.1616 110.674 0 110.674C0 74.5894 0 38.5049 0 1.32697C14.7156 1.32697 29.4313 1.32697 44.5928 1.32697C44.6544 19.0878 44.716 36.8486 44.7794 55.1476C46.3002 52.833 46.3002 52.833 47.7997 50.5046C48.0064 50.1809 48.2132 49.8571 48.4199 49.5334C48.5258 49.3675 48.6318 49.2017 48.7409 49.0308C49.3159 48.1314 49.8931 47.2335 50.4701 46.3354C51.648 44.5018 52.8236 42.6666 53.9979 40.8305C54.6024 39.8854 55.2072 38.9406 55.8119 37.9956C56.3127 37.2132 56.8133 36.4307 57.3139 35.6481C58.5079 33.7814 59.7041 31.916 60.9017 30.0516C62.0601 28.248 63.2155 26.4425 64.3704 24.6366C65.0736 23.5371 65.777 22.4378 66.4808 21.3388C66.8007 20.839 67.1201 20.339 67.4395 19.8389C68.155 18.7199 68.874 17.6033 69.5947 16.4877C69.6682 16.3738 69.7417 16.2599 69.8174 16.1426C70.2988 15.3969 70.7817 14.6524 71.2662 13.9088C71.4234 13.6672 71.5802 13.4253 71.7367 13.1831C73.2789 10.7971 74.9215 8.49911 76.9296 6.4911C77.1324 6.28776 77.1324 6.28776 77.3392 6.0803C81.5227 1.96534 86.9566 -0.135969 92.7657 -0.0825008Z" fill="url(#paint0_linear_291_14041)"/>
</g>
<g filter="url(#filter1_i_291_14041)">
<path d="M468.743 34.6039C473.756 39.1027 477.006 45.313 477.647 52.115C477.665 52.6181 477.677 53.1162 477.678 53.6192C477.679 53.7565 477.679 53.8937 477.68 54.0352C477.681 54.3231 477.681 54.611 477.681 54.8989C477.682 55.3355 477.685 55.7721 477.689 56.2087C477.689 56.4904 477.69 56.7722 477.69 57.054C477.692 57.2466 477.692 57.2466 477.694 57.443C477.689 58.418 477.519 59.0783 477.274 60.0743C463.79 60.0743 450.305 60.0743 436.413 60.0743C437.835 64.4102 439.504 67.7708 443.651 69.9125C447.811 71.9091 453.08 72.167 457.425 70.6387C459.656 69.7436 462.164 68.2161 463.28 65.9491C467.652 65.9491 472.023 65.9491 476.527 65.9491C475.444 69.2496 473.25 71.974 470.93 74.4771C470.777 74.6478 470.777 74.6478 470.62 74.822C466.962 78.7474 461.723 81.0802 456.563 82.0574C456.246 82.1212 456.246 82.1212 455.922 82.1862C449.04 83.3459 441.483 81.9571 435.666 77.9948C435.289 77.7125 434.916 77.4241 434.547 77.1302C434.447 77.0508 434.347 76.9715 434.244 76.8898C428.786 72.5085 425.332 66.0598 424.509 59.0366C424.42 57.9047 424.426 56.7676 424.425 55.6327C424.425 55.497 424.424 55.3614 424.424 55.2216C424.427 53.1807 424.522 51.2567 425.031 49.2723C425.078 49.0807 425.078 49.0807 425.125 48.8852C426.875 41.7613 431.361 35.8081 437.513 31.9972C440.447 30.2377 443.683 29.1378 447.048 28.6158C447.267 28.5811 447.486 28.5464 447.712 28.5107C455.295 27.5879 462.885 29.6026 468.743 34.6039ZM439.865 43.6218C438.412 45.4038 436.599 48.026 436.599 50.4094C446.204 50.4094 455.809 50.4094 465.706 50.4094C465.311 47.1999 463.736 44.1308 461.228 42.071C455 37.4841 445.246 37.7181 439.865 43.6218Z" fill="url(#paint1_linear_291_14041)"/>
</g>
<g filter="url(#filter2_i_291_14041)">
<path d="M246.464 34.0097C246.778 34.2963 247.089 34.5864 247.395 34.881C247.798 35.278 247.798 35.278 248.352 35.699C249.202 36.4708 249.879 37.37 250.579 38.2811C250.761 38.5083 250.761 38.5083 250.946 38.74C254.522 43.4141 256.208 49.4285 256.211 55.2895C256.214 55.4781 256.216 55.6667 256.218 55.861C256.221 57.3348 256.03 58.5801 255.803 60.0746C242.319 60.0746 228.835 60.0746 214.942 60.0746C216.437 64.6297 217.985 67.7058 222.219 69.9291C223.013 70.3037 223.809 70.6083 224.644 70.8767C224.825 70.9373 225.007 70.9978 225.194 71.0603C229.258 72.1777 234.157 71.7735 237.869 69.7226C239.149 68.926 240.131 68.1591 240.927 66.859C241.419 66.2291 241.68 65.983 242.454 65.7831C243.26 65.73 244.047 65.7358 244.853 65.7644C245.148 65.7679 245.443 65.7706 245.738 65.7725C246.51 65.7797 247.281 65.7983 248.053 65.8193C248.842 65.8388 249.631 65.8474 250.421 65.8569C251.966 65.8772 253.512 65.9095 255.057 65.9494C253.472 69.4913 253.472 69.4913 252.515 70.8056C252.421 70.9364 252.328 71.0673 252.232 71.2021C247.675 77.4425 241.092 81.1612 233.579 82.3073C226.686 83.1954 219.045 81.7433 213.399 77.4793C207.748 73.0064 204.087 66.7677 203.088 59.5455C202.651 55.8831 202.782 51.8806 203.747 48.3251C203.78 48.1993 203.813 48.0735 203.847 47.9439C205.661 41.2255 210.24 35.4092 216.131 31.9133C225.39 26.628 238.144 26.9486 246.464 34.0097ZM219.42 42.6398C219.269 42.7732 219.119 42.9066 218.964 43.044C216.939 44.9494 215.692 47.3537 214.942 50.0307C214.942 50.1557 214.942 50.2808 214.942 50.4097C224.609 50.4097 234.275 50.4097 244.235 50.4097C243.755 48.4102 243.755 48.4102 242.976 46.584C242.878 46.3907 242.878 46.3907 242.778 46.1935C242.245 45.1689 241.643 44.2594 240.877 43.3978C240.771 43.2706 240.665 43.1433 240.555 43.0121C238.347 40.541 234.793 39.2213 231.579 39.0033C227.092 38.8019 222.853 39.4689 219.42 42.6398Z" fill="url(#paint2_linear_291_14041)"/>
</g>
<g filter="url(#filter3_i_291_14041)">
<path d="M165.87 28.9948C165.932 37.3124 165.994 45.63 166.057 54.1996C167.737 52.5127 167.737 52.5127 169.307 50.7576C169.833 50.1377 170.39 49.5472 170.943 48.9525C171.19 48.6856 171.438 48.4186 171.685 48.1516C171.806 48.0206 171.928 47.8896 172.053 47.7546C172.549 47.217 173.041 46.6757 173.532 46.1336C174.337 45.2456 175.146 44.362 175.957 43.4804C176.902 42.4538 177.84 41.4206 178.774 40.3832C179.493 39.5864 180.221 38.7984 180.948 38.0091C181.617 37.2821 182.282 36.5517 182.943 35.8172C183.82 34.8424 184.706 33.8761 185.594 32.9115C186.446 31.9852 187.294 31.0548 188.14 30.1219C188.803 29.3907 188.803 29.3907 189.006 29.1843C189.461 29.1663 189.909 29.1605 190.364 29.1628C190.506 29.1628 190.647 29.1628 190.794 29.1627C191.265 29.1629 191.737 29.1644 192.208 29.1658C192.534 29.1662 192.86 29.1665 193.186 29.1666C194.046 29.1674 194.906 29.1692 195.766 29.1713C196.642 29.1733 197.519 29.1741 198.396 29.1751C200.117 29.1771 201.838 29.1804 203.56 29.1843C203.378 30.4358 203.378 30.4358 202.87 30.9181C202.768 31.0178 202.666 31.1176 202.561 31.2204C202.452 31.3224 202.343 31.4244 202.23 31.5295C202.007 31.7463 201.785 31.9634 201.563 32.181C201.456 32.2848 201.349 32.3886 201.239 32.4956C200.771 32.9603 200.352 33.4621 199.929 33.968C199.534 34.4259 199.107 34.8465 198.679 35.2726C198.348 35.615 198.038 35.9676 197.73 36.3317C197.045 37.131 196.336 37.9031 195.618 38.6716C195.354 38.9556 195.09 39.2396 194.826 39.5237C194.695 39.6649 194.564 39.806 194.428 39.9515C193.855 40.5691 193.285 41.1895 192.715 41.8104C192.609 41.9258 192.503 42.0412 192.394 42.1601C192.18 42.3925 191.967 42.6248 191.754 42.8571C191.425 43.2152 191.096 43.5729 190.767 43.9305C189.746 45.0409 188.726 46.1526 187.712 47.2706C186.761 48.3197 185.801 49.3608 184.84 50.4004C183.674 51.6622 182.515 52.9302 181.357 54.1996C181.599 54.9227 181.87 55.3501 182.418 55.8696C182.911 56.3516 183.383 56.8346 183.829 57.362C184.42 58.0601 185.031 58.7364 185.648 59.4111C186.351 60.1805 187.042 60.9564 187.718 61.7503C188.201 62.3053 188.697 62.8476 189.193 63.3908C189.792 64.047 190.389 64.7034 190.965 65.3806C191.629 66.1599 192.319 66.9133 193.009 67.669C193.861 68.6035 194.7 69.5485 195.537 70.4974C196.441 71.5214 197.349 72.541 198.265 73.5532C198.821 74.1667 199.373 74.7824 199.91 75.4128C200.577 76.1942 201.269 76.9508 201.961 77.7092C202.71 78.5309 203.45 79.3604 204.186 80.1949C204.347 80.3768 204.509 80.5579 204.679 80.7309C204.687 81.1098 204.687 81.489 204.679 81.8679C202.71 81.9031 200.741 81.93 198.772 81.9465C197.858 81.9544 196.943 81.9651 196.029 81.9823C195.146 81.9988 194.263 82.0078 193.379 82.0118C193.043 82.0146 192.707 82.02 192.371 82.0282C189.742 82.0898 189.742 82.0898 188.854 81.5461C188.476 81.1677 188.185 80.7968 187.887 80.3518C187.676 80.1048 187.462 79.8597 187.246 79.6175C187.139 79.4922 187.033 79.3669 186.924 79.2377C186.544 78.7932 186.155 78.3587 185.765 77.9238C185.195 77.2838 184.651 76.6314 184.12 75.9576C183.206 74.8081 182.211 73.7415 181.213 72.6664C180.664 72.0745 180.132 71.4709 179.61 70.8549C179.234 70.4146 178.849 69.9824 178.465 69.5498C177.856 68.8644 177.254 68.1732 176.657 67.4771C176.268 67.0275 175.874 66.5829 175.479 66.1387C174.87 65.4532 174.269 64.7621 173.672 64.0659C173.283 63.6164 172.889 63.1718 172.494 62.7275C171.885 62.0421 171.283 61.3509 170.686 60.6547C170.298 60.2052 169.903 59.7606 169.509 59.3163C168.785 58.502 168.072 57.6797 167.363 56.8527C166.932 56.3524 166.501 55.8521 166.057 55.3366C165.995 64.0919 165.934 72.8473 165.87 81.8679C161.93 81.8679 157.989 81.8679 153.929 81.8679C153.929 64.4823 153.929 47.0968 153.929 29.1843C157.879 28.6828 161.889 28.9948 165.87 28.9948Z" fill="url(#paint3_linear_291_14041)"/>
</g>
<g filter="url(#filter4_i_291_14041)">
<path d="M303.404 33.663C307.744 37.5621 310.433 42.8337 310.875 48.7395C310.921 49.7436 310.914 50.7474 310.907 51.7523C310.907 52.0814 310.907 52.4105 310.907 52.7395C310.908 53.6219 310.904 54.5042 310.9 55.3865C310.897 56.3127 310.897 57.2389 310.896 58.1651C310.894 59.9141 310.89 61.663 310.884 63.4119C310.878 65.4052 310.875 67.3984 310.872 69.3916C310.866 73.4872 310.856 77.5828 310.844 81.6784C306.903 81.6784 302.963 81.6784 298.903 81.6784C298.901 80.7366 298.899 79.7948 298.897 78.8244C298.891 75.705 298.881 72.5856 298.868 69.4662C298.861 67.5758 298.855 65.6854 298.852 63.7949C298.85 62.1459 298.844 60.4969 298.836 58.8479C298.832 57.9759 298.829 57.104 298.829 56.2321C298.83 55.4088 298.826 54.5855 298.82 53.7622C298.819 53.4625 298.818 53.1629 298.819 52.8632C298.831 49.1143 298.081 45.6583 295.438 42.8697C292.685 40.3208 289.184 39.8251 285.594 39.9524C282.453 40.1665 279.769 41.603 277.674 43.9602C275.305 46.9475 275.182 50.7 275.168 54.3555C275.167 54.6545 275.165 54.9535 275.163 55.2525C275.158 56.059 275.154 56.8654 275.15 57.6719C275.146 58.5166 275.141 59.3614 275.136 60.2062C275.127 61.8035 275.118 63.4008 275.11 64.9981C275.101 66.8176 275.091 68.6371 275.08 70.4565C275.059 74.1972 275.039 77.9378 275.02 81.6784C271.08 81.6784 267.139 81.6784 263.079 81.6784C263.071 77.5764 263.064 73.4744 263.06 69.3724C263.058 67.4675 263.055 65.5627 263.051 63.6578C263.047 61.9964 263.045 60.3351 263.044 58.6737C263.043 57.795 263.042 56.9163 263.04 56.0376C263.037 55.2084 263.036 54.3792 263.037 53.55C263.037 53.2477 263.036 52.9454 263.035 52.6432C263.004 45.9148 265.078 40.0976 269.726 35.2487C270.884 34.0754 272.156 33.116 273.528 32.2165C273.733 32.0819 273.938 31.9473 274.149 31.8086C282.68 26.5534 295.707 26.953 303.404 33.663Z" fill="url(#paint4_linear_291_14041)"/>
</g>
<g filter="url(#filter5_i_291_14041)">
<path d="M369.804 28.9946C373.745 28.9946 377.685 28.9946 381.745 28.9946C381.748 29.926 381.751 30.8573 381.753 31.8169C381.763 34.9008 381.775 37.9846 381.789 41.0685C381.798 42.9374 381.805 44.8064 381.81 46.6753C381.814 48.3056 381.82 49.9358 381.829 51.566C381.833 52.428 381.837 53.2901 381.838 54.1522C381.839 54.966 381.843 55.7798 381.849 56.5936C381.85 56.89 381.851 57.1864 381.851 57.4828C381.848 61.3706 382.477 65.1 385.251 68.0039C385.564 68.2882 385.883 68.5424 386.223 68.7916C386.327 68.8724 386.431 68.9533 386.538 69.0366C389.166 70.9065 392.819 71.2641 395.926 70.7755C398.772 70.1916 401.287 68.9787 403.015 66.5175C404.373 64.3926 405.084 62.0166 405.097 59.4868C405.098 59.3558 405.099 59.2248 405.1 59.0899C405.103 58.6534 405.105 58.217 405.106 57.7805C405.108 57.4667 405.11 57.1528 405.112 56.839C405.117 55.9887 405.121 55.1383 405.124 54.288C405.128 53.3987 405.134 52.5094 405.139 51.6201C405.148 49.9369 405.156 48.2537 405.164 46.5704C405.174 44.6538 405.184 42.7372 405.194 40.8205C405.215 36.8786 405.235 32.9366 405.254 28.9946C409.195 28.9946 413.136 28.9946 417.196 28.9946C417.212 33.2779 417.226 37.5612 417.234 41.8446C417.238 43.8338 417.243 45.8229 417.252 47.8121C417.259 49.5476 417.264 51.283 417.266 53.0184C417.267 53.9358 417.269 54.8532 417.274 55.7706C417.319 63.5114 416.339 69.9415 410.75 75.7211C406.114 80.3695 399.703 82.3671 393.302 82.4718C386.646 82.4096 380.587 80.3386 375.728 75.6494C370.19 69.7938 369.712 62.4662 369.747 54.7752C369.751 53.8664 369.751 52.9577 369.752 52.049C369.753 50.3342 369.758 48.6196 369.764 46.9049C369.77 44.9501 369.773 42.9954 369.776 41.0407C369.782 37.0253 369.792 33.01 369.804 28.9946Z" fill="url(#paint5_linear_291_14041)"/>
</g>
<g filter="url(#filter6_i_291_14041)">
<path d="M311.404 28.9957C315.652 28.9957 319.901 28.9957 324.278 28.9957C324.77 29.9963 325.263 30.9969 325.771 32.0279C326.07 32.635 326.07 32.635 326.371 33.242C326.623 33.7512 326.874 34.2606 327.126 34.7701C327.255 35.0321 327.385 35.2941 327.514 35.556C328.432 37.4094 329.324 39.2742 330.203 41.1471C331.054 42.9596 331.922 44.7634 332.792 46.566C333.255 47.5242 333.718 48.4827 334.18 49.4413C334.272 49.6333 334.365 49.8253 334.46 50.0232C335.388 51.947 336.311 53.8729 337.234 55.7994C337.307 55.9518 337.379 56.1041 337.455 56.261C337.851 57.0902 338.248 57.9194 338.645 58.7487C339.05 58.2275 339.362 57.7129 339.649 57.1166C339.774 56.8564 339.774 56.8564 339.903 56.5908C339.992 56.4032 340.082 56.2156 340.174 56.0223C340.269 55.8259 340.364 55.6295 340.461 55.4271C340.77 54.7857 341.077 54.1437 341.385 53.5016C341.599 53.0566 341.813 52.6115 342.027 52.1665C343.269 49.583 344.506 46.9974 345.739 44.4092C346.896 41.9795 348.065 39.5559 349.234 37.132C350.326 34.8663 351.415 32.5995 352.474 30.3177C352.993 29.2041 352.993 29.2041 353.198 28.9957C353.581 28.9779 353.966 28.9735 354.35 28.9742C354.53 28.9742 354.53 28.9742 354.714 28.9741C355.112 28.9743 355.511 28.9757 355.91 28.9772C356.186 28.9776 356.462 28.9778 356.737 28.978C357.465 28.9787 358.192 28.9806 358.919 28.9827C359.661 28.9846 360.402 28.9855 361.144 28.9865C362.6 28.9885 364.056 28.9917 365.512 28.9957C365.253 29.8491 364.92 30.6242 364.527 31.4225C364.466 31.5462 364.405 31.67 364.343 31.7975C364.142 32.2051 363.941 32.6121 363.74 33.0191C363.598 33.3062 363.457 33.5934 363.316 33.8806C363.019 34.4835 362.721 35.0861 362.423 35.6885C362.047 36.4495 361.672 37.211 361.297 37.9727C361.004 38.5672 360.711 39.1615 360.418 39.7557C360.28 40.0357 360.142 40.3157 360.004 40.5957C359.347 41.928 358.686 43.2565 357.997 44.5719C356.53 47.3751 355.146 50.2214 353.752 53.0623C353.366 53.8488 352.979 54.6352 352.592 55.4215C351.612 57.4147 350.632 59.4082 349.653 61.4018C348.595 63.5556 347.536 65.7093 346.477 67.8626C346.094 68.6413 345.712 69.4202 345.329 70.1992C342.34 76.2888 342.34 76.2888 340.868 79.0806C340.612 79.5673 340.359 80.0559 340.107 80.5445C339.682 81.3649 339.256 82.1854 338.831 83.0059C338.585 83.0059 338.339 83.0059 338.085 83.0059C337.947 82.7258 337.947 82.7258 337.807 82.4402C336.935 80.6646 336.062 78.8892 335.189 77.114C334.741 76.2018 334.292 75.2895 333.844 74.377C333.41 73.4934 332.976 72.6099 332.541 71.7266C332.377 71.3927 332.213 71.0587 332.049 70.7247C331.222 69.0403 330.386 67.3623 329.518 65.6993C328.562 63.8658 327.646 62.0127 326.736 60.1553C326.444 59.56 326.152 58.965 325.859 58.3699C325.134 56.8936 324.409 55.4169 323.684 53.9401C323.069 52.686 322.453 51.4321 321.837 50.1784C321.552 49.5993 321.268 49.02 320.984 48.4407C320.084 46.6068 319.169 44.7826 318.225 42.9718C317.473 41.529 316.75 40.0724 316.032 38.6118C315.897 38.337 315.761 38.0622 315.626 37.7874C315.347 37.221 315.068 36.6544 314.79 36.0878C314.432 35.3605 314.074 34.6335 313.716 33.9066C313.438 33.3436 313.161 32.7804 312.884 32.2172C312.752 31.9486 312.619 31.6801 312.487 31.4116C312.304 31.0405 312.122 30.6692 311.939 30.2978C311.836 30.0868 311.732 29.8759 311.625 29.6586C311.404 29.1852 311.404 29.1852 311.404 28.9957Z" fill="url(#paint6_linear_291_14041)"/>
</g>
</g>
<line x1="20.3237" y1="142.5" x2="457.324" y2="142.5" stroke="#E6E6E6" stroke-opacity="0.4" stroke-width="3" stroke-linecap="round"/>
<path d="M49.347 205L54.979 187.972H59.511L65.055 205H61.755L60.501 200.996H53.637L52.427 205H49.347ZM54.341 198.664H59.775L57.003 189.82L54.341 198.664ZM66.5842 201.766L69.6642 201.524C69.7962 202.778 70.4342 203.328 72.2602 203.328C74.0422 203.328 74.7242 202.734 74.7242 201.722C74.7242 200.886 74.3062 200.446 73.1622 200.27L70.6982 199.918C68.0142 199.544 67.0022 198.444 67.0022 196.464C67.0022 194.11 68.4762 192.658 72.1502 192.658C75.7362 192.658 77.0342 194.022 77.2982 196.046L74.2842 196.244C74.1522 195.144 73.6242 194.572 72.0402 194.572C70.3462 194.572 69.8182 195.144 69.8182 196.112C69.8182 196.948 70.2362 197.366 71.4022 197.542L73.9102 197.916C76.7482 198.334 77.5182 199.478 77.5402 201.524C77.5182 203.79 76.0442 205.242 72.1502 205.242C68.3442 205.242 66.8042 203.988 66.5842 201.766ZM79.5607 201.766L82.6407 201.524C82.7727 202.778 83.4107 203.328 85.2367 203.328C87.0187 203.328 87.7007 202.734 87.7007 201.722C87.7007 200.886 87.2827 200.446 86.1387 200.27L83.6747 199.918C80.9907 199.544 79.9787 198.444 79.9787 196.464C79.9787 194.11 81.4527 192.658 85.1267 192.658C88.7127 192.658 90.0107 194.022 90.2747 196.046L87.2607 196.244C87.1287 195.144 86.6007 194.572 85.0167 194.572C83.3227 194.572 82.7947 195.144 82.7947 196.112C82.7947 196.948 83.2127 197.366 84.3787 197.542L86.8867 197.916C89.7247 198.334 90.4947 199.478 90.5167 201.524C90.4947 203.79 89.0207 205.242 85.1267 205.242C81.3207 205.242 79.7807 203.988 79.5607 201.766ZM98.7838 192.658C102.876 192.658 104.79 194.484 104.79 198.95C104.79 203.24 102.744 205.242 98.7398 205.242C94.6478 205.242 92.7338 203.416 92.7338 198.95C92.7338 194.66 94.7578 192.658 98.7838 192.658ZM98.7618 194.704C96.8038 194.704 95.9018 195.76 95.9018 198.972C95.9018 202.118 96.7818 203.196 98.7618 203.196C100.72 203.196 101.622 202.14 101.622 198.95C101.622 195.782 100.742 194.704 98.7618 194.704ZM107.704 205V192.9H110.476V195.43H110.674C111.356 193.67 112.346 192.9 114.04 192.9H115.074V195.782H113.006C111.51 195.782 110.762 196.376 110.762 198.07V205H107.704ZM121.653 205C119.651 205 118.749 204.054 118.749 202.228V195.034H116.505V192.9H117.979C118.859 192.9 119.167 192.57 119.167 191.712V189.688H121.807V192.9H124.931V195.034H121.807V201.546C121.807 202.536 122.093 202.888 123.193 202.888H124.689V205H121.653ZM127.556 205V192.9H130.416V194.814H130.614C131.318 193.406 132.418 192.658 134.53 192.658C136.664 192.658 137.874 193.428 138.336 194.814H138.512C139.216 193.406 140.36 192.658 142.428 192.658C145.354 192.658 146.542 194.044 146.542 196.552V205H143.484V196.882C143.484 195.43 142.868 194.814 141.372 194.814C139.48 194.814 138.578 195.738 138.578 197.498V205H135.52V196.882C135.52 195.43 134.904 194.814 133.408 194.814C131.494 194.814 130.614 195.716 130.614 197.498V205H127.556ZM149.324 199.016C149.324 194.616 151.392 192.658 155.264 192.658C159.334 192.658 160.83 194.704 160.83 198.29V199.456H152.448C152.558 202.184 153.416 203.24 155.352 203.24C156.936 203.24 157.552 202.668 157.794 201.326L160.83 201.722C160.368 203.988 158.806 205.242 155.242 205.242C151.194 205.242 149.324 203.372 149.324 199.016ZM155.22 194.594C153.504 194.594 152.668 195.408 152.492 197.85H157.75V197.828C157.75 195.54 157.09 194.594 155.22 194.594ZM163.757 205V192.9H166.617V194.858H166.815C167.541 193.428 168.685 192.658 170.753 192.658C173.679 192.658 174.911 194.066 174.911 196.508V205H171.853V196.948C171.853 195.452 171.215 194.814 169.697 194.814C167.739 194.814 166.815 195.738 166.815 197.564V205H163.757ZM182.218 205C180.216 205 179.314 204.054 179.314 202.228V195.034H177.07V192.9H178.544C179.424 192.9 179.732 192.57 179.732 191.712V189.688H182.372V192.9H185.496V195.034H182.372V201.546C182.372 202.536 182.658 202.888 183.758 202.888H185.254V205H182.218ZM193.739 196.508C193.739 190.128 196.379 187.73 201.637 187.73C206.433 187.73 208.501 189.798 208.875 193.846L205.509 194.176C205.289 191.184 204.211 190.062 201.593 190.062C198.425 190.062 197.083 191.382 197.083 196.442C197.083 201.414 198.469 202.91 201.483 202.91C204.123 202.91 205.289 201.744 205.575 198.664L208.941 198.972C208.479 203.13 206.169 205.242 201.439 205.242C196.181 205.242 193.739 202.756 193.739 196.508ZM216.278 192.658C218.126 192.658 219.116 193.318 219.864 194.638H220.062V192.9H222.9V205H220.062V203.196H219.864C219.05 204.604 217.884 205.242 216.014 205.242C212.978 205.242 211.306 203.57 211.306 199.016C211.306 194.638 213.088 192.658 216.278 192.658ZM217.004 194.66C215.332 194.66 214.452 195.716 214.452 198.928C214.452 202.272 215.354 203.174 216.938 203.218C218.764 203.218 219.952 201.986 219.952 198.928C219.952 195.98 218.852 194.66 217.004 194.66ZM230.45 205C228.448 205 227.546 204.054 227.546 202.228V195.034H225.302V192.9H226.776C227.656 192.9 227.964 192.57 227.964 191.712V189.688H230.604V192.9H233.728V195.034H230.604V201.546C230.604 202.536 230.89 202.888 231.99 202.888H233.486V205H230.45ZM235.39 199.016C235.39 194.616 237.458 192.658 241.33 192.658C245.4 192.658 246.896 194.704 246.896 198.29V199.456H238.514C238.624 202.184 239.482 203.24 241.418 203.24C243.002 203.24 243.618 202.668 243.86 201.326L246.896 201.722C246.434 203.988 244.872 205.242 241.308 205.242C237.26 205.242 235.39 203.372 235.39 199.016ZM241.286 194.594C239.57 194.594 238.734 195.408 238.558 197.85H243.816V197.828C243.816 195.54 243.156 194.594 241.286 194.594ZM255.038 209.334C250 209.334 248.856 208.234 248.856 206.606C248.856 205.396 249.538 204.692 251.496 204.472V204.23C250.11 203.922 249.604 203.24 249.582 202.162C249.582 201.04 250.176 200.336 251.562 200.072V199.852C250.044 199.302 249.406 198.246 249.384 196.53C249.318 194.11 250.858 192.658 254.708 192.658C256.116 192.658 257.062 192.9 258.382 192.9H261.418V194.814H258.888V195.034C259.768 195.474 260.142 196.068 260.142 197.036C260.23 198.95 258.844 200.27 254.796 200.27C254.114 200.27 253.498 200.226 252.97 200.16C252.486 200.358 252.288 200.732 252.288 201.26C252.266 202.008 252.75 202.316 253.63 202.316H257.568C260.428 202.316 261.462 203.526 261.462 205.506C261.462 207.816 260.252 209.334 255.038 209.334ZM254.818 194.528C253.08 194.484 252.376 195.144 252.376 196.618C252.376 198.136 253.014 198.774 254.774 198.774C256.512 198.796 257.216 198.158 257.216 196.684C257.216 195.166 256.556 194.528 254.818 194.528ZM255.192 207.596C258.096 207.596 258.8 206.98 258.8 205.946C258.8 205.176 258.404 204.692 257.172 204.692H253.762C252.288 204.692 251.76 205.176 251.76 205.946C251.738 207.068 252.486 207.596 255.192 207.596ZM269.198 192.658C273.29 192.658 275.204 194.484 275.204 198.95C275.204 203.24 273.158 205.242 269.154 205.242C265.062 205.242 263.148 203.416 263.148 198.95C263.148 194.66 265.172 192.658 269.198 192.658ZM269.176 194.704C267.218 194.704 266.316 195.76 266.316 198.972C266.316 202.118 267.196 203.196 269.176 203.196C271.134 203.196 272.036 202.14 272.036 198.95C272.036 195.782 271.156 194.704 269.176 194.704ZM278.118 205V192.9H280.89V195.43H281.088C281.77 193.67 282.76 192.9 284.454 192.9H285.488V195.782H283.42C281.924 195.782 281.176 196.376 281.176 198.07V205H278.118ZM287.291 209.092V206.958H290.041C290.745 206.958 291.053 206.738 291.273 206.144L291.537 205.462L286.697 192.9H289.843L292.989 201.766L295.937 192.9H298.775L293.451 207.068C292.923 208.476 292.219 209.092 290.503 209.092H287.291ZM307.065 205V187.972H318.835V190.414H310.211V194.968H318.241V197.3H310.211V202.558H319.121V205H307.065ZM320.623 205L324.693 198.708L320.909 192.9H324.319L326.871 197.058L329.225 192.9H332.217L328.499 198.642L332.613 205H329.181L326.321 200.336L323.681 205H320.623ZM333.745 198.95C333.745 194.594 335.857 192.658 339.729 192.658C343.425 192.658 344.811 194.198 345.141 196.948L342.039 197.278C341.863 195.386 341.225 194.704 339.685 194.704C337.793 194.704 336.913 195.782 336.913 198.972C336.913 202.052 337.705 203.218 339.641 203.218C341.137 203.218 341.819 202.558 342.105 200.578L345.185 200.996C344.745 203.702 343.139 205.242 339.575 205.242C335.681 205.242 333.745 203.438 333.745 198.95ZM347.324 199.016C347.324 194.616 349.392 192.658 353.264 192.658C357.334 192.658 358.83 194.704 358.83 198.29V199.456H350.448C350.558 202.184 351.416 203.24 353.352 203.24C354.936 203.24 355.552 202.668 355.794 201.326L358.83 201.722C358.368 203.988 356.806 205.242 353.242 205.242C349.194 205.242 347.324 203.372 347.324 199.016ZM353.22 194.594C351.504 194.594 350.668 195.408 350.492 197.85H355.75V197.828C355.75 195.54 355.09 194.594 353.22 194.594ZM361.757 205V187.092H364.815V205H361.757ZM368.46 205V187.092H371.518V205H368.46ZM374.415 199.016C374.415 194.616 376.483 192.658 380.355 192.658C384.425 192.658 385.921 194.704 385.921 198.29V199.456H377.539C377.649 202.184 378.507 203.24 380.443 203.24C382.027 203.24 382.643 202.668 382.885 201.326L385.921 201.722C385.459 203.988 383.897 205.242 380.333 205.242C376.285 205.242 374.415 203.372 374.415 199.016ZM380.311 194.594C378.595 194.594 377.759 195.408 377.583 197.85H382.841V197.828C382.841 195.54 382.181 194.594 380.311 194.594ZM388.849 205V192.9H391.709V194.858H391.907C392.633 193.428 393.777 192.658 395.845 192.658C398.771 192.658 400.003 194.066 400.003 196.508V205H396.945V196.948C396.945 195.452 396.307 194.814 394.789 194.814C392.831 194.814 391.907 195.738 391.907 197.564V205H388.849ZM402.775 198.95C402.775 194.594 404.887 192.658 408.759 192.658C412.455 192.658 413.841 194.198 414.171 196.948L411.069 197.278C410.893 195.386 410.255 194.704 408.715 194.704C406.823 194.704 405.943 195.782 405.943 198.972C405.943 202.052 406.735 203.218 408.671 203.218C410.167 203.218 410.849 202.558 411.135 200.578L414.215 200.996C413.775 203.702 412.169 205.242 408.605 205.242C404.711 205.242 402.775 203.438 402.775 198.95ZM416.353 199.016C416.353 194.616 418.421 192.658 422.293 192.658C426.363 192.658 427.859 194.704 427.859 198.29V199.456H419.477C419.587 202.184 420.445 203.24 422.381 203.24C423.965 203.24 424.581 202.668 424.823 201.326L427.859 201.722C427.397 203.988 425.835 205.242 422.271 205.242C418.223 205.242 416.353 203.372 416.353 199.016ZM422.249 194.594C420.533 194.594 419.697 195.408 419.521 197.85H424.779V197.828C424.779 195.54 424.119 194.594 422.249 194.594Z" fill="white"/>
<path d="M45.437 254L48.3237 256.887L51.2105 254L48.3237 251.113L45.437 254ZM175.324 254.5C175.6 254.5 175.824 254.276 175.824 254C175.824 253.724 175.6 253.5 175.324 253.5V254.5ZM48.3237 254V254.5H49.3159V254V253.5H48.3237V254ZM51.3003 254V254.5H53.2847V254V253.5H51.3003V254ZM55.269 254V254.5H57.2534V254V253.5H55.269V254ZM59.2378 254V254.5H61.2222V254V253.5H59.2378V254ZM63.2065 254V254.5H65.1909V254V253.5H63.2065V254ZM67.1753 254V254.5H69.1597V254V253.5H67.1753V254ZM71.144 254V254.5H73.1284V254V253.5H71.144V254ZM75.1128 254V254.5H77.0972V254V253.5H75.1128V254ZM79.0815 254V254.5H81.0659V254V253.5H79.0815V254ZM83.0503 254V254.5H85.0347V254V253.5H83.0503V254ZM87.019 254V254.5H89.0034V254V253.5H87.019V254ZM90.9878 254V254.5H92.9722V254V253.5H90.9878V254ZM94.9565 254V254.5H96.9409V254V253.5H94.9565V254ZM98.9253 254V254.5H100.91V254V253.5H98.9253V254ZM102.894 254V254.5H104.878V254V253.5H102.894V254ZM106.863 254V254.5H108.847V254V253.5H106.863V254ZM110.832 254V254.5H112.816V254V253.5H110.832V254ZM114.8 254V254.5H116.785V254V253.5H114.8V254ZM118.769 254V254.5H120.753V254V253.5H118.769V254ZM122.738 254V254.5H124.722V254V253.5H122.738V254ZM126.707 254V254.5H128.691V254V253.5H126.707V254ZM130.675 254V254.5H132.66V254V253.5H130.675V254ZM134.644 254V254.5H136.628V254V253.5H134.644V254ZM138.613 254V254.5H140.597V254V253.5H138.613V254ZM142.582 254V254.5H144.566V254V253.5H142.582V254ZM146.55 254V254.5H148.535V254V253.5H146.55V254ZM150.519 254V254.5H152.503V254V253.5H150.519V254ZM154.488 254V254.5H156.472V254V253.5H154.488V254ZM158.457 254V254.5H160.441V254V253.5H158.457V254ZM162.425 254V254.5H164.41V254V253.5H162.425V254ZM166.394 254V254.5H168.378V254V253.5H166.394V254ZM170.363 254V254.5H172.347V254V253.5H170.363V254ZM174.332 254V254.5H175.324V254V253.5H174.332V254Z" fill="white"/>
<path d="M194.692 267L204.932 236.04H213.172L223.252 267H217.252L214.972 259.72H202.492L200.292 267H194.692ZM203.772 255.48H213.652L208.612 239.4L203.772 255.48ZM226.206 251.56C226.206 239.96 231.006 235.6 240.566 235.6C249.286 235.6 253.046 239.36 253.726 246.72L247.606 247.32C247.206 241.88 245.246 239.84 240.486 239.84C234.726 239.84 232.286 242.24 232.286 251.44C232.286 260.48 234.806 263.2 240.286 263.2C245.086 263.2 247.206 261.08 247.726 255.48L253.846 256.04C253.006 263.6 248.806 267.44 240.206 267.44C230.646 267.44 226.206 262.92 226.206 251.56ZM259.949 267V236.04H281.349V240.48H265.669V248.76H280.269V253H265.669V262.56H281.869V267H259.949Z" fill="white"/>
<path d="M432.21 254L429.324 251.113L426.437 254L429.324 256.887L432.21 254ZM302.324 254V254.5H303.316V254V253.5H302.324V254ZM305.3 254V254.5H307.285V254V253.5H305.3V254ZM309.269 254V254.5H311.253V254V253.5H309.269V254ZM313.238 254V254.5H315.222V254V253.5H313.238V254ZM317.207 254V254.5H319.191V254V253.5H317.207V254ZM321.175 254V254.5H323.16V254V253.5H321.175V254ZM325.144 254V254.5H327.128V254V253.5H325.144V254ZM329.113 254V254.5H331.097V254V253.5H329.113V254ZM333.082 254V254.5H335.066V254V253.5H333.082V254ZM337.05 254V254.5H339.035V254V253.5H337.05V254ZM341.019 254V254.5H343.003V254V253.5H341.019V254ZM344.988 254V254.5H346.972V254V253.5H344.988V254ZM348.957 254V254.5H350.941V254V253.5H348.957V254ZM352.925 254V254.5H354.91V254V253.5H352.925V254ZM356.894 254V254.5H358.878V254V253.5H356.894V254ZM360.863 254V254.5H362.847V254V253.5H360.863V254ZM364.832 254V254.5H366.816V254V253.5H364.832V254ZM368.8 254V254.5H370.785V254V253.5H368.8V254ZM372.769 254V254.5H374.753V254V253.5H372.769V254ZM376.738 254V254.5H378.722V254V253.5H376.738V254ZM380.707 254V254.5H382.691V254V253.5H380.707V254ZM384.675 254V254.5H386.66V254V253.5H384.675V254ZM388.644 254V254.5H390.628V254V253.5H388.644V254ZM392.613 254V254.5H394.597V254V253.5H392.613V254ZM396.582 254V254.5H398.566V254V253.5H396.582V254ZM400.55 254V254.5H402.535V254V253.5H400.55V254ZM404.519 254V254.5H406.503V254V253.5H404.519V254ZM408.488 254V254.5H410.472V254V253.5H408.488V254ZM412.457 254V254.5H414.441V254V253.5H412.457V254ZM416.425 254V254.5H418.41V254V253.5H416.425V254ZM420.394 254V254.5H422.378V254V253.5H420.394V254ZM424.363 254V254.5H426.347V254V253.5H424.363V254ZM428.332 254V254.5H429.324V254V253.5H428.332V254Z" fill="white"/>
<defs>
<filter id="filter0_i_291_14041" x="0" y="-0.0834961" width="115.126" height="119.052" filterUnits="userSpaceOnUse" color-interpolation-filters="sRGB">
<feFlood flood-opacity="0" result="BackgroundImageFix"/>
<feBlend mode="normal" in="SourceGraphic" in2="BackgroundImageFix" result="shape"/>
<feColorMatrix in="SourceAlpha" type="matrix" values="0 0 0 0 0 0 0 0 0 0 0 0 0 0 0 0 0 0 127 0" result="hardAlpha"/>
<feOffset dy="6.89743"/>
<feGaussianBlur stdDeviation="5.60416"/>
<feComposite in2="hardAlpha" operator="arithmetic" k2="-1" k3="1"/>
<feColorMatrix type="matrix" values="0 0 0 0 0 0 0 0 0 0 0 0 0 0 0 0 0 0 0.25 0"/>
<feBlend mode="normal" in2="shape" result="effect1_innerShadow_291_14041"/>
</filter>
<filter id="filter1_i_291_14041" x="424.424" y="28.2935" width="53.2695" height="61.1855" filterUnits="userSpaceOnUse" color-interpolation-filters="sRGB">
<feFlood flood-opacity="0" result="BackgroundImageFix"/>
<feBlend mode="normal" in="SourceGraphic" in2="BackgroundImageFix" result="shape"/>
<feColorMatrix in="SourceAlpha" type="matrix" values="0 0 0 0 0 0 0 0 0 0 0 0 0 0 0 0 0 0 127 0" result="hardAlpha"/>
<feOffset dy="6.89743"/>
<feGaussianBlur stdDeviation="5.60416"/>
<feComposite in2="hardAlpha" operator="arithmetic" k2="-1" k3="1"/>
<feColorMatrix type="matrix" values="0 0 0 0 0 0 0 0 0 0 0 0 0 0 0 0 0 0 0.25 0"/>
<feBlend mode="normal" in2="shape" result="effect1_innerShadow_291_14041"/>
</filter>
<filter id="filter2_i_291_14041" x="202.849" y="28.2871" width="53.3691" height="61.1674" filterUnits="userSpaceOnUse" color-interpolation-filters="sRGB">
<feFlood flood-opacity="0" result="BackgroundImageFix"/>
<feBlend mode="normal" in="SourceGraphic" in2="BackgroundImageFix" result="shape"/>
<feColorMatrix in="SourceAlpha" type="matrix" values="0 0 0 0 0 0 0 0 0 0 0 0 0 0 0 0 0 0 127 0" result="hardAlpha"/>
<feOffset dy="6.89743"/>
<feGaussianBlur stdDeviation="5.60416"/>
<feComposite in2="hardAlpha" operator="arithmetic" k2="-1" k3="1"/>
<feColorMatrix type="matrix" values="0 0 0 0 0 0 0 0 0 0 0 0 0 0 0 0 0 0 0.25 0"/>
<feBlend mode="normal" in2="shape" result="effect1_innerShadow_291_14041"/>
</filter>
<filter id="filter3_i_291_14041" x="153.929" y="28.8989" width="50.7559" height="60.0537" filterUnits="userSpaceOnUse" color-interpolation-filters="sRGB">
<feFlood flood-opacity="0" result="BackgroundImageFix"/>
<feBlend mode="normal" in="SourceGraphic" in2="BackgroundImageFix" result="shape"/>
<feColorMatrix in="SourceAlpha" type="matrix" values="0 0 0 0 0 0 0 0 0 0 0 0 0 0 0 0 0 0 127 0" result="hardAlpha"/>
<feOffset dy="6.89743"/>
<feGaussianBlur stdDeviation="5.60416"/>
<feComposite in2="hardAlpha" operator="arithmetic" k2="-1" k3="1"/>
<feColorMatrix type="matrix" values="0 0 0 0 0 0 0 0 0 0 0 0 0 0 0 0 0 0 0.25 0"/>
<feBlend mode="normal" in2="shape" result="effect1_innerShadow_291_14041"/>
</filter>
<filter id="filter4_i_291_14041" x="263.034" y="28.209" width="47.8779" height="60.3667" filterUnits="userSpaceOnUse" color-interpolation-filters="sRGB">
<feFlood flood-opacity="0" result="BackgroundImageFix"/>
<feBlend mode="normal" in="SourceGraphic" in2="BackgroundImageFix" result="shape"/>
<feColorMatrix in="SourceAlpha" type="matrix" values="0 0 0 0 0 0 0 0 0 0 0 0 0 0 0 0 0 0 127 0" result="hardAlpha"/>
<feOffset dy="6.89743"/>
<feGaussianBlur stdDeviation="5.60416"/>
<feComposite in2="hardAlpha" operator="arithmetic" k2="-1" k3="1"/>
<feColorMatrix type="matrix" values="0 0 0 0 0 0 0 0 0 0 0 0 0 0 0 0 0 0 0.25 0"/>
<feBlend mode="normal" in2="shape" result="effect1_innerShadow_291_14041"/>
</filter>
<filter id="filter5_i_291_14041" x="369.746" y="28.9946" width="47.5303" height="60.3745" filterUnits="userSpaceOnUse" color-interpolation-filters="sRGB">
<feFlood flood-opacity="0" result="BackgroundImageFix"/>
<feBlend mode="normal" in="SourceGraphic" in2="BackgroundImageFix" result="shape"/>
<feColorMatrix in="SourceAlpha" type="matrix" values="0 0 0 0 0 0 0 0 0 0 0 0 0 0 0 0 0 0 127 0" result="hardAlpha"/>
<feOffset dy="6.89743"/>
<feGaussianBlur stdDeviation="5.60416"/>
<feComposite in2="hardAlpha" operator="arithmetic" k2="-1" k3="1"/>
<feColorMatrix type="matrix" values="0 0 0 0 0 0 0 0 0 0 0 0 0 0 0 0 0 0 0.25 0"/>
<feBlend mode="normal" in2="shape" result="effect1_innerShadow_291_14041"/>
</filter>
<filter id="filter6_i_291_14041" x="311.404" y="28.9741" width="54.1084" height="60.9292" filterUnits="userSpaceOnUse" color-interpolation-filters="sRGB">
<feFlood flood-opacity="0" result="BackgroundImageFix"/>
<feBlend mode="normal" in="SourceGraphic" in2="BackgroundImageFix" result="shape"/>
<feColorMatrix in="SourceAlpha" type="matrix" values="0 0 0 0 0 0 0 0 0 0 0 0 0 0 0 0 0 0 127 0" result="hardAlpha"/>
<feOffset dy="6.89743"/>
<feGaussianBlur stdDeviation="5.60416"/>
<feComposite in2="hardAlpha" operator="arithmetic" k2="-1" k3="1"/>
<feColorMatrix type="matrix" values="0 0 0 0 0 0 0 0 0 0 0 0 0 0 0 0 0 0 0.25 0"/>
<feBlend mode="normal" in2="shape" result="effect1_innerShadow_291_14041"/>
</filter>
<linearGradient id="paint0_linear_291_14041" x1="57.5632" y1="-0.0834961" x2="57.5632" y2="112.072" gradientUnits="userSpaceOnUse">
<stop stop-color="#03D9BB"/>
<stop offset="1" stop-color="#00B097"/>
</linearGradient>
<linearGradient id="paint1_linear_291_14041" x1="451.059" y1="28.2935" x2="451.059" y2="82.5817" gradientUnits="userSpaceOnUse">
<stop stop-color="#03D9BB"/>
<stop offset="1" stop-color="#00B097"/>
</linearGradient>
<linearGradient id="paint2_linear_291_14041" x1="229.534" y1="28.2871" x2="229.534" y2="82.5569" gradientUnits="userSpaceOnUse">
<stop stop-color="#03D9BB"/>
<stop offset="1" stop-color="#00B097"/>
</linearGradient>
<linearGradient id="paint3_linear_291_14041" x1="179.307" y1="28.8989" x2="179.307" y2="82.0553" gradientUnits="userSpaceOnUse">
<stop stop-color="#03D9BB"/>
<stop offset="1" stop-color="#00B097"/>
</linearGradient>
<linearGradient id="paint4_linear_291_14041" x1="286.973" y1="28.209" x2="286.973" y2="81.6784" gradientUnits="userSpaceOnUse">
<stop stop-color="#03D9BB"/>
<stop offset="1" stop-color="#00B097"/>
</linearGradient>
<linearGradient id="paint5_linear_291_14041" x1="393.511" y1="28.9946" x2="393.511" y2="82.4718" gradientUnits="userSpaceOnUse">
<stop stop-color="#03D9BB"/>
<stop offset="1" stop-color="#00B097"/>
</linearGradient>
<linearGradient id="paint6_linear_291_14041" x1="338.458" y1="28.9741" x2="338.458" y2="83.0059" gradientUnits="userSpaceOnUse">
<stop stop-color="#03D9BB"/>
<stop offset="1" stop-color="#00B097"/>
</linearGradient>
<clipPath id="clip0_291_14041">
<rect width="477.647" height="112" fill="white"/>
</clipPath>
</defs>
</svg>
