<svg width="390" height="36" viewBox="0 0 390 36" fill="none" xmlns="http://www.w3.org/2000/svg">
<g filter="url(#filter0_i_323_12773)">
<path d="M28.6864 1.2398C28.727 1.23997 28.7676 1.24014 28.8095 1.24032C30.7254 1.25229 32.3956 1.94506 33.7484 3.30778C34.9112 4.52188 35.4772 6.16888 35.4727 7.83489C35.4389 8.95537 35.1833 10.0053 34.6797 11.0068C34.6508 11.0651 34.622 11.1234 34.5923 11.1834C34.2697 11.8201 33.8718 12.4013 33.469 12.9892C33.3591 13.1506 33.2494 13.3121 33.1397 13.4737C33.065 13.5836 32.9902 13.6936 32.9154 13.8035C32.5104 14.399 32.1114 14.9984 31.7134 15.5985C31.4141 16.0497 31.1141 16.4999 30.8036 16.9434C30.7571 17.0101 30.7107 17.0768 30.6642 17.1435C30.5807 17.2634 30.4961 17.3824 30.4108 17.5011C30.3748 17.5526 30.3388 17.6041 30.3018 17.6572C30.2549 17.7228 30.2549 17.7228 30.207 17.7898C30.1311 17.9546 30.1573 18.0271 30.2051 18.2001C30.2668 18.3199 30.2668 18.3199 30.3479 18.4343C30.3779 18.4787 30.4079 18.5231 30.4388 18.5688C30.4716 18.6163 30.5043 18.6638 30.5381 18.7128C30.572 18.7627 30.6059 18.8127 30.6408 18.8641C30.7512 19.0266 30.8622 19.1886 30.9733 19.3506C31.0497 19.4629 31.1261 19.5753 31.2024 19.6877C31.3518 19.9074 31.5013 20.127 31.6509 20.3465C31.8732 20.6728 32.0931 21.0006 32.3114 21.3295C32.5466 21.684 32.7826 22.038 33.0202 22.3909C33.1523 22.5873 33.2841 22.7838 33.416 22.9804C33.4808 23.0769 33.5457 23.1733 33.6107 23.2696C34.1247 24.0308 34.6446 24.8027 34.9806 25.6625C34.999 25.7095 35.0175 25.7565 35.0365 25.8049C35.6786 27.5131 35.6101 29.4293 34.8611 31.0861C34.1214 32.6555 32.8222 33.7744 31.2246 34.3993C30.8899 34.5145 30.5501 34.604 30.2051 34.6825C30.1644 34.6926 30.1236 34.7026 30.0817 34.713C29.8615 34.7491 29.6448 34.7507 29.4221 34.7527C29.3733 34.7531 29.3246 34.7536 29.2744 34.7541C29.1711 34.7549 29.0677 34.7555 28.9643 34.7559C28.8606 34.7566 28.7569 34.7577 28.6531 34.7594C27.0522 34.7854 25.5929 34.3303 24.3711 33.2665C24.3253 33.2276 24.2795 33.1887 24.2324 33.1486C23.185 32.2361 22.4656 31.0993 21.7172 29.9424C21.5663 29.7094 21.4146 29.477 21.2629 29.2447C20.8141 28.5576 20.3671 27.8694 19.92 27.1811C19.5634 26.6321 19.2064 26.0834 18.8486 25.5351C18.4309 24.8948 18.0142 24.2539 17.5978 23.6128C17.2411 23.0638 16.8841 22.515 16.5264 21.9667C16.1691 21.4192 15.8126 20.8712 15.4564 20.3229C15.3622 20.1779 15.2679 20.033 15.1736 19.8881C15.1417 19.839 15.1098 19.7899 15.0769 19.7393C15.0173 19.6477 14.9577 19.5561 14.898 19.4645C14.6368 19.0629 14.3782 18.6598 14.1191 18.2568C14.0911 26.2193 14.0911 26.2193 14.0625 34.3427C9.59525 34.3427 5.12801 34.3427 0.525391 34.3427C0.525391 23.5578 0.525391 12.7728 0.525391 1.66106C4.99264 1.66106 9.45988 1.66106 14.0625 1.66106C14.0812 6.96942 14.0999 12.2778 14.1191 17.747C14.5808 17.0552 14.5808 17.0552 15.036 16.3593C15.0988 16.2625 15.1615 16.1658 15.2243 16.069C15.2564 16.0194 15.2886 15.9699 15.3217 15.9188C15.4963 15.65 15.6715 15.3816 15.8467 15.1132C16.2043 14.5652 16.5611 14.0167 16.9176 13.4679C17.1011 13.1854 17.2847 12.903 17.4683 12.6206C17.6203 12.3868 17.7723 12.1529 17.9242 11.919C18.2867 11.361 18.6499 10.8035 19.0134 10.2463C19.3651 9.70723 19.7158 9.1676 20.0664 8.62786C20.2799 8.29925 20.4934 7.97069 20.7071 7.64221C20.8042 7.49284 20.9011 7.34338 20.9981 7.19392C21.2153 6.85948 21.4336 6.52574 21.6523 6.19231C21.6747 6.15827 21.697 6.12423 21.72 6.08916C21.8661 5.8663 22.0127 5.64376 22.1598 5.42154C22.2075 5.34931 22.2551 5.27701 22.3026 5.20463C22.7708 4.4915 23.2694 3.80468 23.879 3.20452C23.9406 3.14374 23.9406 3.14374 24.0034 3.08174C25.2733 1.85186 26.9229 1.22382 28.6864 1.2398Z" fill="white"/>
</g>
<path d="M44.7484 24L49.8684 8.52H53.9884L59.0284 24H56.0284L54.8884 20.36H48.6484L47.5484 24H44.7484ZM49.2884 18.24H54.2284L51.7084 10.2L49.2884 18.24ZM60.4186 21.06L63.2186 20.84C63.3386 21.98 63.9186 22.48 65.5786 22.48C67.1986 22.48 67.8186 21.94 67.8186 21.02C67.8186 20.26 67.4386 19.86 66.3986 19.7L64.1586 19.38C61.7186 19.04 60.7986 18.04 60.7986 16.24C60.7986 14.1 62.1386 12.78 65.4786 12.78C68.7386 12.78 69.9186 14.02 70.1586 15.86L67.4186 16.04C67.2986 15.04 66.8186 14.52 65.3786 14.52C63.8386 14.52 63.3586 15.04 63.3586 15.92C63.3586 16.68 63.7386 17.06 64.7986 17.22L67.0786 17.56C69.6586 17.94 70.3586 18.98 70.3786 20.84C70.3586 22.9 69.0186 24.22 65.4786 24.22C62.0186 24.22 60.6186 23.08 60.4186 21.06ZM72.2155 21.06L75.0155 20.84C75.1355 21.98 75.7155 22.48 77.3755 22.48C78.9955 22.48 79.6155 21.94 79.6155 21.02C79.6155 20.26 79.2355 19.86 78.1955 19.7L75.9555 19.38C73.5155 19.04 72.5955 18.04 72.5955 16.24C72.5955 14.1 73.9355 12.78 77.2755 12.78C80.5355 12.78 81.7155 14.02 81.9555 15.86L79.2155 16.04C79.0955 15.04 78.6155 14.52 77.1755 14.52C75.6355 14.52 75.1555 15.04 75.1555 15.92C75.1555 16.68 75.5355 17.06 76.5955 17.22L78.8755 17.56C81.4555 17.94 82.1555 18.98 82.1755 20.84C82.1555 22.9 80.8155 24.22 77.2755 24.22C73.8155 24.22 72.4155 23.08 72.2155 21.06ZM89.6909 12.78C93.4109 12.78 95.1509 14.44 95.1509 18.5C95.1509 22.4 93.2909 24.22 89.6509 24.22C85.9309 24.22 84.1909 22.56 84.1909 18.5C84.1909 14.6 86.0309 12.78 89.6909 12.78ZM89.6709 14.64C87.8909 14.64 87.0709 15.6 87.0709 18.52C87.0709 21.38 87.8709 22.36 89.6709 22.36C91.4509 22.36 92.2709 21.4 92.2709 18.5C92.2709 15.62 91.4709 14.64 89.6709 14.64ZM97.8006 24V13H100.321V15.3H100.501C101.121 13.7 102.021 13 103.561 13H104.501V15.62H102.621C101.261 15.62 100.581 16.16 100.581 17.7V24H97.8006ZM110.481 24C108.661 24 107.841 23.14 107.841 21.48V14.94H105.801V13H107.141C107.941 13 108.221 12.7 108.221 11.92V10.08H110.621V13H113.461V14.94H110.621V20.86C110.621 21.76 110.881 22.08 111.881 22.08H113.241V24H110.481ZM115.848 24V13H118.448V14.74H118.628C119.268 13.46 120.268 12.78 122.188 12.78C124.128 12.78 125.228 13.48 125.648 14.74H125.808C126.448 13.46 127.488 12.78 129.368 12.78C132.028 12.78 133.108 14.04 133.108 16.32V24H130.328V16.62C130.328 15.3 129.768 14.74 128.408 14.74C126.688 14.74 125.868 15.58 125.868 17.18V24H123.088V16.62C123.088 15.3 122.528 14.74 121.168 14.74C119.428 14.74 118.628 15.56 118.628 17.18V24H115.848ZM135.636 18.56C135.636 14.56 137.516 12.78 141.036 12.78C144.736 12.78 146.096 14.64 146.096 17.9V18.96H138.476C138.576 21.44 139.356 22.4 141.116 22.4C142.556 22.4 143.116 21.88 143.336 20.66L146.096 21.02C145.676 23.08 144.256 24.22 141.016 24.22C137.336 24.22 135.636 22.52 135.636 18.56ZM140.996 14.54C139.436 14.54 138.676 15.28 138.516 17.5H143.296V17.48C143.296 15.4 142.696 14.54 140.996 14.54ZM148.758 24V13H151.358V14.78H151.538C152.198 13.48 153.238 12.78 155.118 12.78C157.778 12.78 158.898 14.06 158.898 16.28V24H156.118V16.68C156.118 15.32 155.538 14.74 154.158 14.74C152.378 14.74 151.538 15.58 151.538 17.24V24H148.758ZM165.54 24C163.72 24 162.9 23.14 162.9 21.48V14.94H160.86V13H162.2C163 13 163.28 12.7 163.28 11.92V10.08H165.68V13H168.52V14.94H165.68V20.86C165.68 21.76 165.94 22.08 166.94 22.08H168.3V24H165.54ZM176.013 16.28C176.013 10.48 178.413 8.3 183.193 8.3C187.553 8.3 189.433 10.18 189.773 13.86L186.713 14.16C186.513 11.44 185.533 10.42 183.153 10.42C180.273 10.42 179.053 11.62 179.053 16.22C179.053 20.74 180.313 22.1 183.053 22.1C185.453 22.1 186.513 21.04 186.773 18.24L189.833 18.52C189.413 22.3 187.313 24.22 183.013 24.22C178.233 24.22 176.013 21.96 176.013 16.28ZM196.504 12.78C198.184 12.78 199.084 13.38 199.764 14.58H199.944V13H202.524V24H199.944V22.36H199.764C199.024 23.64 197.964 24.22 196.264 24.22C193.504 24.22 191.984 22.7 191.984 18.56C191.984 14.58 193.604 12.78 196.504 12.78ZM197.164 14.6C195.644 14.6 194.844 15.56 194.844 18.48C194.844 21.52 195.664 22.34 197.104 22.38C198.764 22.38 199.844 21.26 199.844 18.48C199.844 15.8 198.844 14.6 197.164 14.6ZM209.388 24C207.568 24 206.748 23.14 206.748 21.48V14.94H204.708V13H206.048C206.848 13 207.127 12.7 207.127 11.92V10.08H209.528V13H212.368V14.94H209.528V20.86C209.528 21.76 209.788 22.08 210.788 22.08H212.148V24H209.388ZM213.878 18.56C213.878 14.56 215.758 12.78 219.278 12.78C222.978 12.78 224.338 14.64 224.338 17.9V18.96H216.718C216.818 21.44 217.598 22.4 219.358 22.4C220.798 22.4 221.358 21.88 221.578 20.66L224.338 21.02C223.918 23.08 222.498 24.22 219.258 24.22C215.578 24.22 213.878 22.52 213.878 18.56ZM219.238 14.54C217.678 14.54 216.918 15.28 216.758 17.5H221.538V17.48C221.538 15.4 220.938 14.54 219.238 14.54ZM231.74 27.94C227.16 27.94 226.12 26.94 226.12 25.46C226.12 24.36 226.74 23.72 228.52 23.52V23.3C227.26 23.02 226.8 22.4 226.78 21.42C226.78 20.4 227.32 19.76 228.58 19.52V19.32C227.2 18.82 226.62 17.86 226.6 16.3C226.54 14.1 227.94 12.78 231.44 12.78C232.72 12.78 233.58 13 234.78 13H237.54V14.74H235.24V14.94C236.04 15.34 236.38 15.88 236.38 16.76C236.46 18.5 235.2 19.7 231.52 19.7C230.9 19.7 230.34 19.66 229.86 19.6C229.42 19.78 229.24 20.12 229.24 20.6C229.22 21.28 229.66 21.56 230.46 21.56H234.04C236.64 21.56 237.58 22.66 237.58 24.46C237.58 26.56 236.48 27.94 231.74 27.94ZM231.54 14.48C229.96 14.44 229.32 15.04 229.32 16.38C229.32 17.76 229.9 18.34 231.5 18.34C233.08 18.36 233.72 17.78 233.72 16.44C233.72 15.06 233.12 14.48 231.54 14.48ZM231.88 26.36C234.52 26.36 235.16 25.8 235.16 24.86C235.16 24.16 234.8 23.72 233.68 23.72H230.58C229.24 23.72 228.76 24.16 228.76 24.86C228.74 25.88 229.42 26.36 231.88 26.36ZM244.613 12.78C248.333 12.78 250.073 14.44 250.073 18.5C250.073 22.4 248.213 24.22 244.573 24.22C240.853 24.22 239.113 22.56 239.113 18.5C239.113 14.6 240.953 12.78 244.613 12.78ZM244.593 14.64C242.813 14.64 241.993 15.6 241.993 18.52C241.993 21.38 242.793 22.36 244.593 22.36C246.373 22.36 247.193 21.4 247.193 18.5C247.193 15.62 246.393 14.64 244.593 14.64ZM252.723 24V13H255.243V15.3H255.423C256.043 13.7 256.942 13 258.483 13H259.423V15.62H257.543C256.183 15.62 255.503 16.16 255.503 17.7V24H252.723ZM261.061 27.72V25.78H263.561C264.201 25.78 264.481 25.58 264.681 25.04L264.921 24.42L260.521 13H263.381L266.241 21.06L268.921 13H271.501L266.661 25.88C266.181 27.16 265.541 27.72 263.981 27.72H261.061ZM279.037 24V8.52H289.737V10.74H281.897V14.88H289.197V17H281.897V21.78H289.997V24H279.037ZM291.363 24L295.063 18.28L291.623 13H294.723L297.043 16.78L299.183 13H301.903L298.523 18.22L302.263 24H299.143L296.543 19.76L294.143 24H291.363ZM303.293 18.5C303.293 14.54 305.213 12.78 308.733 12.78C312.093 12.78 313.353 14.18 313.653 16.68L310.833 16.98C310.673 15.26 310.093 14.64 308.693 14.64C306.973 14.64 306.173 15.62 306.173 18.52C306.173 21.32 306.893 22.38 308.653 22.38C310.013 22.38 310.633 21.78 310.893 19.98L313.693 20.36C313.293 22.82 311.833 24.22 308.593 24.22C305.053 24.22 303.293 22.58 303.293 18.5ZM315.636 18.56C315.636 14.56 317.516 12.78 321.036 12.78C324.736 12.78 326.096 14.64 326.096 17.9V18.96H318.476C318.576 21.44 319.356 22.4 321.116 22.4C322.556 22.4 323.116 21.88 323.336 20.66L326.096 21.02C325.676 23.08 324.256 24.22 321.016 24.22C317.336 24.22 315.636 22.52 315.636 18.56ZM320.996 14.54C319.436 14.54 318.676 15.28 318.516 17.5H323.296V17.48C323.296 15.4 322.696 14.54 320.996 14.54ZM328.758 24V7.72H331.538V24H328.758ZM334.851 24V7.72H337.631V24H334.851ZM340.265 18.56C340.265 14.56 342.145 12.78 345.665 12.78C349.365 12.78 350.725 14.64 350.725 17.9V18.96H343.105C343.205 21.44 343.985 22.4 345.745 22.4C347.185 22.4 347.745 21.88 347.965 20.66L350.725 21.02C350.305 23.08 348.885 24.22 345.645 24.22C341.965 24.22 340.265 22.52 340.265 18.56ZM345.625 14.54C344.065 14.54 343.305 15.28 343.145 17.5H347.925V17.48C347.925 15.4 347.325 14.54 345.625 14.54ZM353.387 24V13H355.987V14.78H356.167C356.827 13.48 357.867 12.78 359.747 12.78C362.407 12.78 363.527 14.06 363.527 16.28V24H360.747V16.68C360.747 15.32 360.167 14.74 358.787 14.74C357.007 14.74 356.167 15.58 356.167 17.24V24H353.387ZM366.046 18.5C366.046 14.54 367.966 12.78 371.486 12.78C374.846 12.78 376.106 14.18 376.406 16.68L373.586 16.98C373.426 15.26 372.846 14.64 371.446 14.64C369.726 14.64 368.926 15.62 368.926 18.52C368.926 21.32 369.646 22.38 371.406 22.38C372.766 22.38 373.386 21.78 373.646 19.98L376.446 20.36C376.046 22.82 374.586 24.22 371.346 24.22C367.806 24.22 366.046 22.58 366.046 18.5ZM378.39 18.56C378.39 14.56 380.27 12.78 383.79 12.78C387.49 12.78 388.85 14.64 388.85 17.9V18.96H381.23C381.33 21.44 382.11 22.4 383.87 22.4C385.31 22.4 385.87 21.88 386.09 20.66L388.85 21.02C388.43 23.08 387.01 24.22 383.77 24.22C380.09 24.22 378.39 22.52 378.39 18.56ZM383.75 14.54C382.19 14.54 381.43 15.28 381.27 17.5H386.05V17.48C386.05 15.4 385.45 14.54 383.75 14.54Z" fill="white"/>
<defs>
<filter id="filter0_i_323_12773" x="0.525391" y="1.2395" width="34.9491" height="35.6149" filterUnits="userSpaceOnUse" color-interpolation-filters="sRGB">
<feFlood flood-opacity="0" result="BackgroundImageFix"/>
<feBlend mode="normal" in="SourceGraphic" in2="BackgroundImageFix" result="shape"/>
<feColorMatrix in="SourceAlpha" type="matrix" values="0 0 0 0 0 0 0 0 0 0 0 0 0 0 0 0 0 0 127 0" result="hardAlpha"/>
<feOffset dy="2.09386"/>
<feGaussianBlur stdDeviation="1.70126"/>
<feComposite in2="hardAlpha" operator="arithmetic" k2="-1" k3="1"/>
<feColorMatrix type="matrix" values="0 0 0 0 0 0 0 0 0 0 0 0 0 0 0 0 0 0 0.25 0"/>
<feBlend mode="normal" in2="shape" result="effect1_innerShadow_323_12773"/>
</filter>
</defs>
</svg>
