<svg width="20" height="20" viewBox="0 0 20 20" fill="none" xmlns="http://www.w3.org/2000/svg">
<path d="M13.5772 2.37867C12.884 2.11206 12.1165 2.11206 11.4233 2.37867L7.96202 3.70994C7.38273 3.93274 7.00049 4.4893 7.00049 5.10995V6.21022C7.33249 6.16842 7.66849 6.16844 8.00049 6.21029V5.10995C8.00049 4.90307 8.1279 4.71755 8.321 4.64328L11.7823 3.31202C12.2444 3.13427 12.7561 3.13427 13.2182 3.31202L16.6795 4.64328C16.8726 4.71755 17 4.90307 17 5.10996V12.8899C17 13.0968 16.8726 13.2823 16.6795 13.3566L14 14.3871V14.8901C14 15.0941 13.9752 15.294 13.928 15.4863L17.0385 14.2899C17.6177 14.0671 18 13.5106 18 12.8899V5.10996C18 4.4893 17.6177 3.93274 17.0385 3.70994L13.5772 2.37867ZM16.0917 5.29414C15.9925 5.03641 15.7032 4.90783 15.4455 5.00696L12.6796 6.07075C12.5641 6.11519 12.4362 6.11519 12.3207 6.07075L9.5548 5.00696C9.29707 4.90783 9.00777 5.03641 8.90864 5.29414C8.80951 5.55188 8.93809 5.84118 9.19582 5.94031L11.9617 7.0041C12.3083 7.13741 12.692 7.13741 13.0386 7.0041L15.8045 5.94031C16.0622 5.84118 16.1908 5.55188 16.0917 5.29414ZM11.0917 10.2943C10.9925 10.0366 10.7032 9.90801 10.4455 10.0071L7.50014 11.14L4.55479 10.0071C4.29705 9.90801 4.00776 10.0366 3.90863 10.2943C3.8095 10.5521 3.93807 10.8414 4.19581 10.9405L7.00014 12.0191V14.5088C7.00014 14.785 7.224 15.0088 7.50014 15.0088C7.77629 15.0088 8.00014 14.785 8.00014 14.5088V12.0191L10.8045 10.9405C11.0622 10.8414 11.1908 10.5521 11.0917 10.2943ZM8.57717 7.37867C7.88397 7.11206 7.11651 7.11206 6.4233 7.37867L2.96202 8.70994C2.38273 8.93274 2.00049 9.4893 2.00049 10.11V14.8899C2.00049 15.5106 2.38273 16.0671 2.96202 16.2899L6.4233 17.6212C7.11651 17.8878 7.88397 17.8878 8.57718 17.6212L12.0385 16.2899C12.6177 16.0671 13 15.5106 13 14.8899V10.11C13 9.4893 12.6177 8.93274 12.0385 8.70994L8.57717 7.37867ZM6.78228 8.31202C7.24442 8.13427 7.75606 8.13427 8.21819 8.31202L11.6795 9.64328C11.8726 9.71755 12 9.90307 12 10.11V14.8899C12 15.0968 11.8726 15.2823 11.6795 15.3566L8.2182 16.6878C7.75606 16.8656 7.24442 16.8656 6.78228 16.6878L3.321 15.3566C3.1279 15.2823 3.00049 15.0968 3.00049 14.8899V10.11C3.00049 9.90307 3.1279 9.71755 3.321 9.64328L6.78228 8.31202Z" fill="black"/>
</svg>
